<?xml version="1.0" encoding="UTF-8" standalone="no"?>
<!-- Created with Inkscape (http://www.inkscape.org/) -->

<svg
   width="94.836075mm"
   height="94.836075mm"
   viewBox="0 0 94.836075 94.836075"
   version="1.1"
   id="svg1"
   xmlns="http://www.w3.org/2000/svg"
   xmlns:svg="http://www.w3.org/2000/svg">
  <defs
     id="defs1" />
  <g
     id="layer1"
     transform="translate(-57.582015,-101.0822)">
    <path
       id="rect1"
       style="fill:#a8b4d1;fill-opacity:1;stroke-width:0;stroke-linecap:square;paint-order:stroke fill markers"
       d="m 71.858146,101.0822 c -7.909123,0 -14.276131,6.36701 -14.276131,14.27613 v 66.2833 c 0,7.90912 6.367008,14.27664 14.276131,14.27664 h 66.283294 c 7.90912,0 14.27665,-6.36752 14.27665,-14.27664 v -66.2833 c 0,-7.90912 -6.36753,-14.27613 -14.27665,-14.27613 z m -0.243396,26.58184 h 16.549894 c 2.539998,0 4.802293,0.51584 6.786666,1.54771 2.024061,0.99219 3.591306,2.42125 4.702556,4.28656 1.150934,1.82562 1.726514,4.02818 1.726514,6.60787 v 0.77359 c 0,2.57969 -0.59532,4.8025 -1.785942,6.66781 -1.150937,1.86531 -2.718699,3.29386 -4.703072,4.28605 -1.984374,0.99218 -4.226411,1.48828 -6.726722,1.48828 H 78.044332 v 16.01401 H 71.61475 Z m 32.48019,0 h 6.66781 l 10.12031,37.62355 h 0.7736 l 10.06088,-37.62355 h 6.66781 l -11.54916,41.67188 h -11.13266 z m -26.050608,5.83427 v 13.98985 h 9.465572 c 2.262186,0 4.067866,-0.59532 5.41724,-1.78594 1.349374,-1.19063 2.024166,-2.81813 2.024166,-4.88187 v -0.59532 c 0,-2.10343 -0.674792,-3.75016 -2.024166,-4.94078 -1.349374,-1.19063 -3.155054,-1.78594 -5.41724,-1.78594 z" />
  </g>
</svg>
